<svg fill="none" height="17" viewBox="0 0 19 17" width="19" xmlns="http://www.w3.org/2000/svg"><path d="m9.5.5c-2.17469 0-3.9375 1.76281-3.9375 3.9375 0 1.75812 2.57344 4.9625 3.55937 6.1256.19969.2356.55688.2356.75626 0 .98597-1.1631 3.55937-4.36748 3.55937-6.1256 0-2.17469-1.7628-3.9375-3.9375-3.9375zm0 5.25c-.725 0-1.3125-.5875-1.3125-1.3125s.5875-1.3125 1.3125-1.3125 1.3125.5875 1.3125 1.3125-.5875 1.3125-1.3125 1.3125zm-8.37125 1.49844c-.185569.07422-.344647.20234-.456716.36782-.112069.16549-.17199.36075-.172034.56062v7.82252c0 .3537.357188.5956.68563.4643l4.31437-1.9637v-7.28375c-.27625-.49937-.50219-.98562-.66406-1.45063zm8.37125 4.49126c-.43969 0-.85563-.1931-1.14094-.53-.61437-.725-1.26781-1.55064-1.85906-2.39751v5.68751l6 2v-7.6872c-.5913.84656-1.2444 1.6725-1.8591 2.3975-.2853.3366-.70121.5297-1.1409.5297zm8.3144-6.20345-4.3144 1.96375v9l4.3713-1.7484c.1855-.0742.3446-.2023.4567-.3678s.172-.3608.172-.5607v-7.82247c0-.35375-.3572-.59563-.6856-.46438z" fill="#3c3c3c"/></svg>